<?xml version="1.0" encoding="UTF-8"?>
<!-- Generator: Adobe Illustrator 16.0.0, SVG Export Plug-In . SVG Version: 6.00 Build 0)  -->
<!DOCTYPE svg PUBLIC "-//W3C//DTD SVG 1.1//EN" "http://www.w3.org/Graphics/SVG/1.1/DTD/svg11.dtd">
<svg version="1.1" id="Layer_1" xmlns="http://www.w3.org/2000/svg" xmlns:xlink="http://www.w3.org/1999/xlink" x="0px" y="0px" width="3222.479px" height="1300.043px" viewBox="0 0 3222.479 1300.043" enable-background="new 0 0 3222.479 1300.043" xml:space="preserve">
<rect x="4.429" fill="#FFFFFF" width="3218.051" height="1279.467"/>
<path fill-rule="evenodd" clip-rule="evenodd" fill="#FFFFFF" d="M2851.183,1060.773  c-38.828-68.469-289.188-510.467-297.063-524.467c-58.953-103.934-63.875-224.861-13.617-331.83  c49.766-105.779,144.758-178.213,260.695-198.885c21-3.691,42.383-5.592,63.547-5.592c81.375,0,161.109,28.027,224.438,79.01  c64.75,51.967,109.539,126.164,126.109,208.633c16.898,84.807,3.992,167.385-38.664,245.383l-310.023,554.982L2851.183,1060.773z"/>
<path fill-rule="evenodd" clip-rule="evenodd" fill="#EF4123" d="M3198.011,291.047c-37.133-185.268-213.336-300.18-393.723-268.133  C2571.347,64.34,2452.62,321.59,2569.433,527.652c7.93,13.945,258.207,455.902,297.063,524.371l294.656-527.488  C3201.347,451.158,3214.472,373.311,3198.011,291.047"/>
<path fill-rule="evenodd" clip-rule="evenodd" fill="#FFFFFF" d="M3140.808,358.176c0,152.578-123.758,276.336-276.391,276.336  c-152.688,0-276.391-123.758-276.391-276.336c0-152.715,123.703-276.527,276.391-276.527  C3017.05,81.648,3140.808,205.461,3140.808,358.176"/>
<path fill="#EF4123" d="M2763.409,356.686c34.508-0.273,64.422-19.291,80.172-47.428c0,0,6.18-9.939-2.023-15.941  c-4.43-3.24-11.43-3.021-20.508,9.324c-2.57,3.527-21.164,28-57.641,30.557c-36.367-2.557-55.016-27.029-57.641-30.557  c-8.969-12.346-16.023-12.564-20.508-9.324c-8.148,6.002-1.914,15.941-1.914,15.941  C2699.097,337.395,2728.983,356.412,2763.409,356.686"/>
<path fill="#EF4123" d="M2965.479,356.686c34.289-0.273,64.203-19.291,80.063-47.428c0,0,6.125-9.939-2.023-15.941  c-4.484-3.24-11.539-3.021-20.617,9.324c-2.57,3.527-21.164,28-57.422,30.557c-36.531-2.557-55.125-27.029-57.641-30.557  c-9.078-12.346-16.242-12.564-20.617-9.324c-8.203,6.002-1.969,15.941-1.969,15.941  C2900.948,337.395,2930.972,356.412,2965.479,356.686"/>
<path fill="#EF4123" d="M3053.581,388.104c-25.211-7.219-68.359,5.346-89.961,72.639c-14.465,44.68-31.008,67.416-56.465,76.604  c-12.879,2.666-26.223,3.951-40.059,3.951c-78.641,0-147-43.887-181.727-108.814l-2.297-5.045  c-8.695-19.195-22.258-20.344-29.641-15.846c-9.68,5.797-8.039,15.846-6.453,20.891h-0.055l0.219,0.506l1.148,2.803  c1.641,3.664,3.555,7.355,5.523,10.801c40.25,76.809,120.695,129.336,213.281,129.336c92.75,0,162.969-35.697,206.5-110.592  C3087.05,442.148,3090.358,398.631,3053.581,388.104"/>
<path fill="#FFFFFF" d="M3103.675,1188.686c0,39.266-107.078,71.094-239.258,71.094s-239.313-31.828-239.313-71.094  c0-39.238,107.133-71.148,239.313-71.148S3103.675,1149.447,3103.675,1188.686"/>
<path fill="#EF4123" d="M3083.058,1184.092c0,31.828-97.891,57.75-218.641,57.75c-120.641,0-218.586-25.922-218.586-57.75  c0-31.938,97.945-57.777,218.586-57.777C2985.167,1126.314,3083.058,1152.154,3083.058,1184.092"/>
<path fill="#FFFFFF" d="M3031.104,1177.529c0,17.609-74.648,31.855-166.688,31.855c-91.984,0-166.633-14.246-166.633-31.855  s74.648-31.91,166.633-31.91C2956.456,1145.619,3031.104,1159.92,3031.104,1177.529"/>
<path fill="#EF4123" d="M2986.315,1174.686c0,9.078-54.523,16.516-121.898,16.516c-67.32,0-121.844-7.438-121.844-16.516  c0-9.023,54.523-16.352,121.844-16.352C2931.792,1158.334,2986.315,1165.662,2986.315,1174.686"/>
<path fill="#6D6E71" d="M836.827,1140.287c0-9.051,7.164-16.188,16.133-16.188c9.023,0,16.078,7.137,16.078,16.188v102.074h59.609  c8.148,0,14.602,6.535,14.602,14.629c0,8.285-6.453,14.711-14.602,14.711H852.96c-8.969,0-16.133-7.137-16.133-16.188V1140.287z"/>
<path fill="#6D6E71" d="M1009.749,1274.189c-33.688,0-58.516-23.652-58.516-57.941v-0.328c0-31.992,22.75-58.379,55.344-58.379  c37.457,0,53.918,30.707,53.918,54.004c0,9.16-6.453,15.203-14.82,15.203h-62.887c3.117,14.438,13.18,21.902,27.344,21.902  c8.801,0,16.129-2.652,22.637-7.465c2.297-1.695,4.32-2.516,7.711-2.516c7.164,0,12.305,5.441,12.305,12.496  c0,4.129-1.859,7.355-4.266,9.488C1038.784,1268.967,1026.042,1274.189,1009.749,1274.189 M1030.198,1206.896  c-1.859-14.219-10.227-23.789-23.621-23.789c-13.18,0-21.766,9.297-24.227,23.789H1030.198z"/>
<path fill="#6D6E71" d="M1085.815,1239.873v-53.074h-1.039c-7.547,0-13.617-6.043-13.617-13.535c0-7.547,6.07-13.59,13.617-13.59  h1.039v-14.027c0-8.805,7.055-15.859,15.859-15.859c8.75,0,15.859,7.055,15.859,15.859v14.027h14c7.547,0,13.617,6.043,13.617,13.59  c0,7.492-6.07,13.535-13.617,13.535h-14v47.879c0,7.328,3.117,10.883,10.281,10.883l3.719-0.246c7.109,0,13.234,5.852,13.234,13.207  c0,5.578-3.828,10.227-8.148,11.867c-5.852,2.297-11.266,3.227-18.211,3.227C1098.94,1273.615,1085.815,1265.74,1085.815,1239.873"/>
<path fill="#6D6E71" d="M1221.222,1132.904c0-9.242,7.766-14.848,17.719-14.848c10.117,0,17.828,5.605,17.828,14.848v0.41  c0,9.242-7.711,15.066-17.828,15.066c-9.953,0-17.719-5.824-17.719-15.066V1132.904z M1223.136,1174.303  c0-8.805,7.109-15.914,15.805-15.914c8.805,0,15.914,7.109,15.914,15.914v82.715c0,8.777-7.109,15.887-15.914,15.887  c-8.695,0-15.805-7.109-15.805-15.887V1174.303z"/>
<path fill="#6D6E71" d="M1285.808,1239.873v-53.074h-1.039c-7.547,0-13.563-6.043-13.563-13.535c0-7.547,6.016-13.59,13.563-13.59  h1.039v-14.027c0-8.805,7.109-15.859,15.859-15.859c8.805,0,15.914,7.055,15.914,15.859v14.027h14  c7.547,0,13.617,6.043,13.617,13.59c0,7.492-6.07,13.535-13.617,13.535h-14v47.879c0,7.328,3.227,10.883,10.227,10.883l3.773-0.246  c7.164,0,13.18,5.852,13.18,13.207c0,5.578-3.773,10.227-8.148,11.867c-5.852,2.297-11.32,3.227-18.156,3.227  C1299.042,1273.615,1285.808,1265.74,1285.808,1239.873"/>
<path fill="#6D6E71" d="M1416.183,1216.248v-0.355c0-32.184,25.922-58.379,60.867-58.379c34.672,0,60.43,25.73,60.43,57.941v0.438  c0,32.156-25.977,58.297-60.813,58.297C1441.94,1274.189,1416.183,1248.514,1416.183,1216.248 M1506.089,1216.248v-0.355  c0-16.516-11.867-30.98-29.422-30.98c-18.211,0-29.094,14-29.094,30.543v0.438c0,16.434,11.867,30.98,29.477,30.98  C1495.315,1246.873,1506.089,1232.846,1506.089,1216.248"/>
<path fill="#6D6E71" d="M1658.065,1257.018c0,8.723-7.164,15.887-15.914,15.887s-15.859-7.164-15.859-15.887v-1.23  c-7.328,9.461-16.68,17.938-32.813,17.938c-24.063,0-38.008-15.832-38.008-41.617v-57.805c0-8.805,7-15.914,15.805-15.914  s15.914,7.109,15.914,15.914v47.797c0,15.094,7.109,22.805,19.195,22.805c12.195,0,19.906-7.711,19.906-22.805v-47.797  c0-8.805,7.109-15.914,15.859-15.914s15.914,7.109,15.914,15.914V1257.018z"/>
<path fill="#6D6E71" d="M1687.487,1239.873v-53.074h-0.984c-7.602,0-13.617-6.043-13.617-13.535c0-7.547,6.016-13.59,13.617-13.59  h0.984v-14.027c0-8.805,7.164-15.859,15.969-15.859c8.695,0,15.859,7.055,15.859,15.859v14.027h14  c7.547,0,13.563,6.043,13.563,13.59c0,7.492-6.016,13.535-13.563,13.535h-14v47.879c0,7.328,3.117,10.883,10.227,10.883l3.773-0.246  c7.109,0,13.18,5.852,13.18,13.207c0,5.578-3.828,10.227-8.203,11.867c-5.852,2.297-11.266,3.227-18.156,3.227  C1700.722,1273.615,1687.487,1265.74,1687.487,1239.873"/>
<path fill="#6D6E71" d="M1793.089,1237.002c10.391,0,18.156,7.738,18.156,17.746v0.383c0,10.117-7.766,17.773-18.156,17.773  c-10.5,0-18.156-7.656-18.156-17.773v-0.383C1774.933,1244.74,1782.589,1237.002,1793.089,1237.002"/>
<path fill="#6D6E71" d="M1848.706,1237.002c10.391,0,18.047,7.738,18.047,17.746v0.383c0,10.117-7.656,17.773-18.047,17.773  c-10.5,0-18.266-7.656-18.266-17.773v-0.383C1830.44,1244.74,1838.206,1237.002,1848.706,1237.002"/>
<path fill="#6D6E71" d="M1904.214,1237.002c10.5,0,18.266,7.738,18.266,17.746v0.383c0,10.117-7.766,17.773-18.266,17.773  c-10.391,0-18.156-7.656-18.156-17.773v-0.383C1886.058,1244.74,1893.823,1237.002,1904.214,1237.002"/>
<path fill="#EF4123" d="M4.429,406.082c0-44.16,34.945-79.133,79.133-79.133h254.68c82.141,0,146.891,22.654,187.906,63.697  c32.922,32.936,49.328,72.912,49.328,122.227v2.037c0,81.211-43.094,126.369-94.445,155.094  c83.18,31.855,134.531,80.145,134.531,176.613v2.078c0,131.496-106.859,197.203-269.117,197.203H83.562  c-44.188,0-79.133-34.836-79.133-79.078V406.082z M304.39,617.586c69.781,0,113.969-22.531,113.969-75.934v-2.037  c0-47.236-36.969-73.896-103.742-73.896H158.538v151.867H304.39z M346.444,907.32c69.891,0,111.945-24.719,111.945-78.039v-2.16  c0-48.152-35.93-77.957-117.086-77.957H158.538V907.32H346.444z"/>
<path fill="#EF4123" d="M1168.065,974.039c0,43.148-34.945,77.984-78.039,77.984c-43.203,0-78.09-34.836-78.09-77.984v-6.125  c-35.875,46.129-82.141,88.266-161.273,88.266c-118.016,0-186.867-78.039-186.867-204.422V567.396  c0-43.176,34.891-78.094,77.984-78.094c43.203,0,78.094,34.918,78.094,78.094v235.088c0,73.992,34.918,112,94.5,112  c59.609,0,97.563-38.008,97.563-112V567.396c0-43.176,34.887-78.094,78.09-78.094c43.094,0,78.039,34.918,78.039,78.094V974.039z"/>
<path fill="#EF4123" d="M1225.542,567.383c0-43.176,34.945-78.094,78.039-78.094c43.203,0,78.094,34.918,78.094,78.094v24.609  c22.531-53.416,59.555-102.703,105.82-102.703c48.234,0,75.961,31.814,75.961,76.016c0,41.002-26.742,65.666-58.57,72.83  c-79.078,18.498-123.211,79.146-123.211,190.053v145.852c0,43.148-34.891,77.984-78.094,77.984  c-43.094,0-78.039-34.836-78.039-77.984V567.383z"/>
<path fill="#EF4123" d="M1603.433,567.383c0-43.176,34.945-78.094,78.148-78.094c43.039,0,77.984,34.918,77.984,78.094v24.609  c22.641-53.416,59.555-102.703,105.875-102.703c48.234,0,75.961,31.814,75.961,76.016c0,41.002-26.742,65.666-58.516,72.83  c-79.133,18.498-123.32,79.146-123.32,190.053v145.852c0,43.148-34.945,77.984-77.984,77.984c-43.203,0-78.148-34.836-78.148-77.984  V567.383z"/>
<path fill="#EF4123" d="M1981.433,567.383c0-43.176,34.891-78.094,77.984-78.094c43.203,0,78.094,34.918,78.094,78.094v7.109  c38.008-51.324,90.344-89.291,171.5-89.291c128.406,0,250.578,100.693,250.578,284.471v2.051  c0,183.777-120.148,284.484-250.578,284.484c-83.234,0-134.477-38.035-171.5-82.168v227.334c0,43.148-34.891,78.094-78.094,78.094  c-43.094,0-77.984-34.945-77.984-78.094V567.383z M2403.456,771.723v-2.051c0-91.383-61.578-152.086-134.477-152.086  c-72.953,0-133.547,60.703-133.547,152.086v2.051c0,91.41,60.594,152.004,133.547,152.004  C2341.878,923.727,2403.456,864.117,2403.456,771.723"/>
</svg>